<?xml version="1.0" encoding="utf-8"?>
<!DOCTYPE svg PUBLIC "-//W3C//DTD SVG 1.1//EN" "http://www.w3.org/Graphics/SVG/1.1/DTD/svg11.dtd">
<svg version="1.1" id="linisi" xmlns="http://www.w3.org/2000/svg" xmlns:xlink="http://www.w3.org/1999/xlink" x="0px" y="0px"
	 width="512px" height="512px" viewBox="0 0 512 512" enable-background="new 0 0 512 512" xml:space="preserve">
<g id="li">
	<path fill-rule="evenodd" clip-rule="evenodd" fill="#D80000" d="M321.9,161.1c-4.3,2.5-8.6,5.2-13.1,7.6
		c-8.6,4.6-17.3,9.0-26.0,13.5c-3.5,1.8-6.1-1.6-9.3-2.0c-1.3-0.1-3.6-0.1-3.6-1.8
		c-0.0-1.8,2.2-2.1,3.7-2.6c7.1-2.2,14.1-4.5,21.3-6.8c1.8-0.5,3.3-1.2,3.3-3.6
		c-0.1-5.4-0.2-10.9-0.3-16.3c-0.0-2.4-0.7-3.6-3.6-2.9c-3.2,0.7-6.5,0.8-9.8,1.6
		c-4.9,1.1-9.0-0.6-13.6-3.0c3.7-2.1,7.5-1.9,10.9-2.3c3.4-0.4,6.9-1.2,10.3-1.3
		c5.0-0.1,6.2-1.6,5.4-6.8c-1.8-11.3-1.5-11.7-12.7-9.5c-6.0,1.2-10.2-0.7-15.2-4.9
		c6.1-0.5,11.4-0.8,16.7-1.5c9.7-1.4,19.9-0.0,29.0-5.4c1.6-0.9,7.4,3.4,7.2,5.4
		c-0.0,0.5-0.6,1.2-1.0,1.4c-0.7,0.3-1.6,0.2-2.4,0.3c-13.3,0.6-15.9,3.7-14.9,17.0
		c0.1,2.3,0.8,3.0,2.9,2.2c1.8-0.6,3.8-1.1,5.6-1.8c7.4-2.7,7.6-2.7,14.6,4.0
		c-6.3,0.8-12.2,1.9-18.1,2.2c-4.3,0.1-5.7,1.9-5.0,5.8c0.6,3.7,0.9,7.5,0.8,11.4
		c-0.0,3.4,1.8,3.7,4.6,2.9c3.9-1.2,7.8-2.3,11.8-3.5C321.6,160.5,321.7,160.8,321.9,161.1z">
		<animate attributeName="fill" values="#D80000;#FFFFFF;#D80000" begin="0" dur="2s" repeatCount="1"/>
	</path>
	<path fill-rule="evenodd" clip-rule="evenodd" fill="#D80000" d="M411.6,111.0c-1.1-2.6-6.7-4.7-9.6-3.5
		c-9.2,3.6-19.3,3.0-28.9,4.8c-1.7,0.3-4.2-0.1-1.9-2.9c1.9-2.2-0.0-6.1,3.4-7.8
		c0.5-0.2-0.0-1.1-0.7-1.4c-3.6-1.6-7.2-3.2-10.9-4.8c-0.8-0.3-2.0-0.3-2.5,0.8
		c-0.5,1.1,0.0,1.9,0.9,2.5c3.8,2.8,4.6,6.9,4.7,11.4c0.0,2.3-0.5,3.1-3.0,3.3
		c-7.6,0.4-15.2,1.1-22.8,1.7c-3.3,0.2-6.7,0.2-11.2,2.3c5.6,1.2,8.6,6.5,14.1,2.8
		c1.0-0.7,3.7-0.5,4.7,0.2c4.6,3.9,10.1,6.1,15.5,8.4c2.9,1.2,3.0,2.5,0.2,4.3
		c-4.3,2.6-8.6,5.5-12.9,8.2c2.9,1,5.3-0.1,7.2-1.5c8.1-5.8,15.7-7.0,23.2,1.1
		c0.9,1.0,2.8,1.9,3.8,0.2c0.9-1.4,1.2-3.5-0.3-5.0c-0.9-0.9-2.0-1.6-3.2-2.3
		c-5.8-3.7-5.8-3.7,0.1-8.0c0.2-0.1,0.5-0.3,0.7-0.6c1.8-1.7,5.5-1.9,6.1-3.5
		c0.9-2.4-3.6-3.1-4.1-6.3c0.9-0.1,1.9-0.2,2.8-0.3c7.2-0.5,14.5-1.0,21.8-1.7
		C410.2,113.1,412.7,113.7,411.6,111.0z M371.4,127.9c-0.2,0.3-1.3,0.4-1.8,0.2
		c-6.1-2.5-12.3-5.1-18.5-7.7c0.0-0.5,0.0-1.0,0.0-1.5c9.8-1.0,19.6-2.1,29.8-3.3
		C379.7,121.8,373.9,123.5,371.4,127.9z">
		<animate attributeName="fill" values="#D80000;#FFFFFF;#D80000" begin="0" dur="2s" repeatCount="1"/>
	</path>
	<path fill-rule="evenodd" clip-rule="evenodd" fill="#D80000" d="M408.9,127.4c-5.5,4.3-6.5,10.2-6.9,16.2
		c-0.2,2.8-1.1,4.7-3.6,5.9c-1.7,0.8-3.7,0.8-4.1-1.0c-0.9-3.6-3.2-2.9-5.7-2.5
		c-3.2,0.4-6.6,0.7-9.8,1.2c-5.3,0.7-7.4,6.8-6.5,11.5c0.4,2.2,2.7,1.5,4.1,1.1
		c10.0-2.9,20.9-1.8,30.4-7.0c1.7-0.9,11.4,4.3,11.8,6.1c0.3,1.3-0.5,1.7-1.6,1.8
		c-3.2,0.3-3.3,2.8-3.9,5.3c-2.7,10.9-4.3,22.1-8.6,32.6c-1.6,4.0-4.8,5.4-7.8,3.8
		c-6.1-3.1-12.8-5.0-18.8-8.8c4.7,0.8,9.5,1.4,14.2,2.5c3.6,0.8,5.2-0.2,6.5-3.8
		c1.5-4.5,3.1-9.3,4.7-13.7c1.5-4.5,1.9-10.5,2.0-15.9c0.0-2.1-1.4-2.3-3.0-2.1
		c-10.0,1.2-20.1,2.5-30.1,3.9c-3.0,0.4-2.9,3.2-3.4,5.4c-2.1,9.0-0.6,10.3,8.4,7.7
		c6.6-1.9,6.6-1.8,3.0-7.7c-0.3-0.5-0.4-1.1-1.1-2.9c6.0,2.8,10.6,5.9,14.4,9.8
		c2.5,2.5-1.2,5.1-2.8,6.9c-2.0,2.2-2.5-1.0-3.1-2.0c-1.5-2.5-3.1-3.1-6.1-2.3
		c-7.8,2.1-15.8,3.7-23.7,5.6c-4.6,1.1-6.5,0.5-11.1-3.6c4.1-0.6,7.7-1.5,11.4-1.8
		c2.3-0.1,3.3-0.8,3.8-3.3c2.2-10.8,1.7-11.4-9.0-9.3c-3.2,0.6-6.5,1.1-9.8,1.7
		c-2.8,0.4-3.7,1.9-3.2,4.9c1.2,8.3,2.4,16.7,1.6,25.2c-0.1,1.3,0.5,3.1-1.4,3.8
		c-2.0,0.6-2.4-1.2-3.2-2.3c-1.5-1.9-3.0-3.9-4.5-5.9c-1.2-1.5-1.4-3.1,0.3-4.2
		c1.9-1.1,2.1-2.7,1.9-4.6c-0.1-0.9,0.0-2.0-0.0-2.9c-0.4-3.9,0.3-8.7-1.6-11.5
		c-2.3-3.1-7.0,0.1-10.7-0.0c-1.8-0.0-3.5-0.2-4.9-1.7c2.6-1.6,5.7-1.7,8.6-2.2
		c6.7-1.3,6.7-1.2,5.3-7.6c0.1-0.0,0.3-0.1,0.3-0.0c5.6,7.1,12.8,4.7,19.9,3.5
		c2.6-0.4,5.2-0.6,7.8-1.1c1.8-0.3,4.5,0.6,5.2-1.7c0.9-3.1,1.6-6.5-0.0-9.7
		c-0.9-1.7-2.5-0.9-4.0-0.6c-4.7,0.8-9.4,1.6-14.2,2.2c-7.8,1.0-7.8,0.9-14.9-3.4
		c0.1-0.2,0.3-0.5,0.5-0.5c7.1-1.1,7.1-1.1,6.6-8.5c-0.2-3.9,0.0-7.9-2.2-11.5
		c-1.1-1.8-0.3-2.9,1.8-2.4c2.9,0.7,5.7,1.6,6.2,5.4c0.6,4.4,1.6,8.8,2.5,13.2
		c0.4,2.0,1.3,3.0,3.7,2.7c13.0-1.3,26.1-2.5,39.2-3.6c4.3-0.3,6.6-2.2,7.0-6.6
		c0.4-4.3,1.1-8.5,0.8-12.9c-0.0-1.0-0.7-2.4,0.4-3.2c1.2-0.7,2.2,0.4,3.1,1.0
		C403.4,123.2,406.0,125.3,408.9,127.4z">
		<animate attributeName="fill" values="#D80000;#FFFFFF;#D80000" begin="0" dur="2s" repeatCount="1"/>
	</path>
</g>
<g id="ni">
	<path fill-rule="evenodd" clip-rule="evenodd" fill="#D80000" d="M296.7,213.9c5.5,0,10.2,0.1,14.9-0.0
		c15.9-0.4,31.7-2.6,47.6-4.4c3.5-0.4,7.1-0.8,10.8-0.2c3.0,0.4,6.4-1.4,9.0-2.8
		c6.5-3.4,10.0,1.2,14.4,4.4c-7.9,0.7-15.9,1.4-23.9,2.2c-5.7,0.5-11.5,1.2-17.3,1.8
		c-2.4,0.2-4.1,1.1-3.8,4.0c0.3,3.1,2.1,3.7,4.8,3.2c12.4-2.4,25.1-2.4,37.5-4.5
		c3.5-0.6,6.8-0.5,9.9-2.9c2.1-1.6,4.3-0.2,6.2,1.3c10.5,8.4,10.6,8.4-1.4,13.7
		c-1.4,0.6-2.6,1.4-3.6,2.5c-1.5,1.9-3.4,2.3-6.1,1.1c1.3-2.2,2.6-4.3,3.9-6.3
		c1.8-2.8,0.9-4.7-2.3-4.3c-8.5,1.1-17.2,0.9-25.8,1.7c-5.9,0.5-11.8,1.2-17.7,1.5
		c-3.4,0.1-4.8,1.0-5.3,4.7c-0.7,5.2,0.4,10.2,0.3,15.4c-0.0,2.6-0.6,3.4-3.1,1.8
		c-3.7-2.3-7.7-4.5-4.5-10.0c0.1-0.2,0.0-0.6,0.0-0.9c0.6-8.4-0.1-9.5-8.5-8.9
		c-9.9,0.6-19.8,1.5-29.7,2.8c-8.6,1.1-10.5,3.4-12.0,12.3c-0.2,1.4,0.3,3.4-1.3,3.9
		c-1.5,0.4-2.4-1.4-3.5-2.3c-0.7-0.6-1.5-1.3-2.3-1.8c-3.8-2.2-3.8-4.1-0.3-7.0
		c4.1-3.5,4.6-8.5,3.6-13.7c-0.4-2.5-1.4-4.9-2.3-8.0c5.4,1.4,6.8,5.8,9.0,9.2
		c1.2,1.9,2.3,2.7,4.7,2.5c13.3-1.1,26.7-2.0,40.1-3.0c2.2-0.1,3.8-0.6,3.5-3.5
		c-0.3-2.5-1.5-3.2-4.0-3.0c-8.9,0.9-17.8,1.7-26.7,2.6C306.1,219.4,301.7,217.1,296.7,213.9z">
		<animate attributeName="fill" values="#D80000;#FFFFFF;#D80000" begin="2" dur="2s" repeatCount="1"/>
	</path>
	<path fill-rule="evenodd" clip-rule="evenodd" fill="#D80000" d="M295.6,239.1c4.0-2.8,7.8-2.4,11.2-2.9
		c6.3-1.0,12.8-1.4,18.9-3.7c3.1-1.2,5.2,0.6,7.4,2.9C321.1,237.1,309.5,243.4,295.6,239.1z 
		M352.7,233.0c9.8-3.2,19.5-2.2,28.5-4.9,c3.4-1.0,6.1-0.1,8.7,1.7c0.7,0.5,1.9,0.8,1.5
		2.1c-0.2,0.9-1.2,0.8-2.0,0.9,c-9.2,1.1-18.4,2.3-27.6,3.3C358.7,236.6,355.7,236.0,352.7,233.0z
		M337.7,240.4c-10.4,3.5-21.0,7.0-31.4,10.7,c-5.3,1.8-9.9,0.6-15.7-2.9c16.5-3.2,31.7-6.1
		47.0-9.1C337.6,239.5,337.6,239.9,337.7,240.4z M353.8,242.3c11.3-1.7,21.9-3.5,32.5-5.1
		c1.6-0.2,3.2,0.5,4.6,1.4c1.4,0.8,3.4,2.0,3.1,3.5c-0.4,2.2-2.7,0.8-4.2,1.0
		c-7.5,0.8-15.1,1.5-22.7,2.4C362.7,246.2,358.3,246.0,353.8,242.3z">
		<animate attributeName="fill" values="#D80000;#FFFFFF;#D80000" begin="2" dur="2s" repeatCount="1"/>
	</path>
	<path fill-rule="evenodd" clip-rule="evenodd" fill="#D80000" d="M342.5,265.6c9.8-1.2,18.5-2.4,27.1-3.5
		c1.5-0.2,2.9,0.2,4.2,0.9c2.3,1.2,3.3,0.6,4.2-2.0c1.5-4.5-0.1-5.6-4.2-5.0
		c-6.2,0.9-12.4,1.8-18.7,2.8c-4.8,0.7-9.4,0.8-13.2-3.9c8.6-0.9,16.8-1.7,25.0-2.7
		c4.9-0.5,9.9-0.7,14.3-3.6c2.3-1.5,10.0,2.1,10.9,4.8c0.2,0.6,0.3,1.4-0.4,1.6
		c-6.9,1.7-4.8,8.9-7.9,13.1c-1.4,2.0,0.2,4.0,2.1,5.3c1.8,1.2,4.1,1.9,6.0,4.3
		c-9.7,0.5-18.9,1-28.0,1.5c-1.7,0.0-3.6-0.5-4.9,1.4c-1.6,2.4,0.8,2.6,1.8,3.7
		c0.8,0.9,0.8,2.0-0.1,2.6c-2.6,1.8-1.7,4.4-1.7,6.8c0.2,10.4,0.5,8.1,9.1,8.4
		c9.7,0.3,19.5-0.8,29.3-1.4c7.5-0.4,10.3-4.2,8.9-11.5c-0.4-2.1-0.9-4.4,0.1-6.3
		c1.1-1.9,0.1-3.9,0.7-5.9c2.7,0.4,3.4,2.7,3.7,4.6c0.9,6.1,2.1,12.0,5.1,17.5
		c1.4,2.6-0.3,4.0-2.2,5.1c-4.3,2.6-9.3,2.4-14.0,2.5c-10.8,0.3-21.8-0.1-32.6,0.8
		c-3.1,0.2-6.4-0.9-9.6-1.3c-3.9-0.4-6.3-3.2-6.4-7.6c-0.0-4.9-0.4-9.9-0.7-14.9
		c-0.1-1.8-0.9-3.0-3.1-2.9c-2.9,0.0-6.0-0.5-8.6,1.2c-0.2,0.1-0.1,1.0,0.0,1.2
		c4.8,4.5-0.2,4.7-2.6,6.3c-11.0,7.7-23.1,12.8-36.1,16.2c-4.5,1.2-9.2,1.1-13.7,2.2
		c-1.0,0.2-2.1,0.0-2.3-1.1c-0.2-1.5,0.9-2.0,2.1-2.1c12.3-1.2,22.7-7.9,33.9-12.5
		c4.0-1.6,6.8-5.4,9.7-10.1c-6.7,1.0-12.9-0.3-18.1,4.0c-0.6,0.5-1.9,1.1-2.1,0.4
		c-1.1-3.2-5.7-5.3-4.2-9.2c2.4-6.4,0.3-12.4-1.0-18.5c-0.3-1.3-1.9-2.8-0.1-3.9
		c1.2-0.8,2.6,0.2,3.4,1.2c2.3,2.8,4.8,2.3,7.4,0.6c4.7-2.9,10.1-4.7,13.9-9.2
		c1.5-1.8,3.9,0.3,5.9,1c1.1,0.4,2.6,1.4,2.2,2.9c-0.4,1.8-2.4,1.9-4.0,2.4
		c-6.1,2.0-12.2,4.1-18.4,6.2c-2.3,0.7-3.6,2.0-2.9,4.8c0.7,2.8,2.4,3.2,4.8,2.7
		c4.3-0.9,8.7-1.9,13.0-2.9c1.2-0.2,2.7-0.9,3.8-0.6c1.8,0.5,4.4,1.2,4.4,3.3
		c0.0,2.6-2.7,1.7-4.3,1.9c-5.2,0.9-10.5,1.5-15.7,2.4c-2.2,0.3-4.0,1.2-3.7,4.2
		c0.3,3.4,2.8,2.6,4.8,2.4c16.6-1.6,33.3-3.2,50.0-4.9c2.8-0.2,6.2-0.0,7.1-4.0
		c0.5-2.4,0.1-3.9-2.9-3.4c-5.0,0.8-10.2,1.3-15.3,2.0C352.7,269.2,347.8,269.8,342.5,265.6z
		M270.8,309.0c3.2-2.5,6.0-1.9,8.4-2.7,c0.9-0.3,2.0,0.3,1.9,1.6c-0.0,1.0-1.0,1.1-1.8 
		1.1C276.9,309.0,274.4,309.0,270.8,309.0z">
		<animate attributeName="fill" values="#D80000;#FFFFFF;#D80000" begin="2" dur="2s" repeatCount="1"/>
	</path>
</g>
<g id="si">
	<path fill-rule="evenodd" clip-rule="evenodd" fill="#D80000" d="M398.1,320.8c-2.3-2.5-4.8-5.0-7.3-7.4
		c-1.7-1.7-3.4-1.2-5.2,0.3c-3.4,3.1-7.7,4.6-12.2,5.2c-15.4,2.1-30.9,3.7-46.3,6.1
		c-8.6,1.3-16.3,0.9-22.0-6.7c-0.8-1.0-2.1-2.1-3.3-1.0c-1.4,1.2,0.1,2.3,0.8,3.3
		c6.5,9.7,6.6,20.7,5.0,31.7c-0.5,3.7-1.9,7.0,0.3,10.7c1.3,2.1,0.1,3.6-2.8,4.1
		c-5.3,0.8-10.8,0.4-16.3,1.9c5.4,1.7,9.7,6.5,16.0,5.3c19.3-3.6,38.8-6.6,58.5-8.6
		c8.0-0.8,8.1-0.6,10.9,6.7c1.2,3.3,3.1,3.1,5.0,0.8c1.9-2.2,3.1-5.0,3.7-8.0
		c2.7-11.9,5.6-23.8,9.0-35.6c0.7-2.6,1.3-5.0,4.8-5.3C399.3,324.4,399.9,322.7,398.1,320.8z
		 M337.9,349.3c2.1-0.7,3.5-0.0,3.4,2.5c-0.0,0.1,0.0,0.3,0.0,0.4
		c0.2,11.1,2.4,12.0-10.7,12.7c-2.1,0.1-4.3,0.3-6.4,0.3c-7.1,0.3-7.0,0.3-7.4-7.0
		c-0.4-7.7-0.1-15.5-1.5-23.2c-0.5-2.7,0.2-4.0,3.5-4.2c5.6-0.2,11.2-1.1,16.8-2.0
		c3.7-0.5,5.4,0.7,5.8,4.6c1.1,9.6,1.2,9.6-8.3,10.6c-3.6,0.3-7.2,0.9-10.8,1.5
		c-1.0,0.1-2.1,0.4-3.2,0.6C325.2,348.8,331.2,351.4,337.9,349.3z M382.1,336.3
		c-2.6,6.0-3.3,12.6-5.0,18.9c-1.0,3.7-2.4,6.3-7.3,6.0c-4.9-0.2-9.8,0.8-14.8,1.6
		c-4.3,0.6-6.7-0.4-5.7-5.3c0.1-0.7,0.0-1.6,0.0-2.4c-0.0,0-0.0,0-0.1,0
		c0-1.3,0.1-2.6-0.0-3.9c-0.3-3.0,1.1-3.9,4.0-4.1c6.6-0.5,13.1-1.5,19.7-2.4
		c1.0-0.1,2.6,0.1,2.8-1.2c0.2-1.3-1.2-1.7-2.1-2.4c-3.4-2.8-6.9-3.5-10.9-0.9
		c-2.9,1.9-6.8,1.1-10.0,2.5c-1.6,0.6-2.4-0.2-2.8-1.8c-1.0-4.0-0.4-7.9,0.4-11.8
		c0.4-2.1,2.7-2.2,4.5-2.4c8.0-0.9,16.1-1.7,24.2-2.6c3.4-0.3,4.2,1.8,4.4,4.4
		C383.5,330.8,383.2,333.6,382.1,336.3z">
		<animate attributeName="fill" values="#D80000;#FFFFFF;#D80000" begin="4" dur="2s" repeatCount="1"/>
	</path>
	<path fill-rule="evenodd" clip-rule="evenodd" fill="#D80000" d="M287.6,375.1c8.0,7.4,9.1,11.6,5.5,20.9
		c-2.2,5.7-4.8,11.2-8.5,16.2c-1.1,1.5-2.4,3.3-4.3,2.3c-2.8-1.3-5.0-3.7-5.9-6.8
		c-0.6-2.1,1.4-2.5,2.9-3.3c6.3-3.5,11.6-15.0,10.2-22.1C286.9,380.1,286.5,377.8,287.6,375.1z
		M381.1,391.5c4.0,3.4,4.5,7.1,5.9,10.4,c1.2,2.9,2.4,5.7,4.7,8.0c1.2,1.2,2.8,2.6,1.9
		4.7c-0.9,2.1-2.9,2.3-5.0,2.4,c-11.0,0.4-21.8-1.2-32.7-1.9c-16.4-1.0-30.1-7.1-41.3
		-19.1c-1.6-1.8-3.1-3.8-4.6-5.7,c-0.7-0.9-1.5-2.1-0.1-2.9c1.1-0.7,2.0,0.2,2.9,1.1c10.8
		10.6,23.2,18.7,38.7,20.7,c8.2,1.0,16.4,1.8,24.7,1.7c5.5-0.0,7.6-2.7,6.8-8.2C382.4,399.4
		381.8,396.0,381.1,391.5z M357.5,375.2c-1.9,5.6-4.5,10.0-5.6,14.9,c-0.5,2.4-0.9,4.8-0.8
		7.3c0.0,1.3-0.0,2.7-1.6,3.1c-2.8,0.7-10.5-6.7-9.1-9.1,c2.8-4.9,0.1-8.7-1.6-12.9c
		-0.8-1.8-2.3-3.6-1.6-6.2c3.6,0.9,5.2,4.2,7.3,6.4,c3.0,3.2,5.2,2.6,7.7-0.1C353.2
		377.3,354.7,376.3,357.5,375.2z M386.2,372.7c8.4,2.1,14.5,6.9,20.7,11.5,c0.3,0.2,0.7
		0.7,1.0,1.0c6.5,5.9,6.6,8.1,1.1,15.0c-1.3,1.6-3.1,2.8-4.0-0.0,c-3.1-10.8-10.0-18.8
		-18.2-25.9C386.6,374.3,386.6,373.9,386.2,372.7z">
		<animate attributeName="fill" values="#D80000;#FFFFFF;#D80000" begin="4" dur="2s" repeatCount="1"/>
	</path>
</g>
<g id="zhong">
	<path fill-rule="evenodd" clip-rule="evenodd" fill="#D80000" d="M231.5,137.7c-3.1-2.8-5.7-6.4-8.3-9.8
		c-2.4-3.3-4.7-3.4-7.1-0.3c-1.9,2.4-4.1,4.4-7.0,5.3c-10.6,3.5-21.8,4.1-32.6,6.5
		c-2.1,0.4-3.3-0.2-3.2-2.4c0.2-7.4-1.4-14.9,1.5-22.2c0.6-1.5,1.2-3.4-0.3-4.6
		c-4.8-3.4-9.5-7.2-15.6-8.4c-0.8-0.1-1.7-0.3-2.2,0.4c-0.6,1.1,0.1,1.8,1.0,2.4
		c3.4,2.4,4.0,5.9,4.7,9.8c1.4,7.2,0.2,14.6,1.5,21.8c0.6,3.3-0.9,4.5-4.4,4.9
		c-14.6,1.4-29.3,3.1-44.0,4.8c-2.1,0.2-3.3-0.0-4.6-2.2c-3.3-5.6-7.3-10.8-11.1-16.2
		c-0.3,0.1-0.6,0.3-0.9,0.5c0.1,0.5,0.2,1.2,0.4,1.7c5.9,12.7,9.2,26.2,10.5,40.2
		c0.5,5.7,2.3,12.1-0.3,17.2c-4.3,8.4,1.2,13.5,4.8,19.3c1.8,3.0,4.1,1.6,4.6-1.3
		c0.6-3.4,1.0-6.9,1.0-10.4c-0.0-3.4,1.3-4.8,4.7-5.4c11.1-2.0,22.3-3.2,33.6-4.8
		c3.9-0.5,4.9,0.9,4.9,4.5c-0.1,9.4,0.0,18.8,0.0,28.3c0.0,3.3-0.1,6.7-2.9,9.1
		c-1.8,1.5-1.7,2.9,0.2,4.4c1.1,0.8,2.2,2.0,3.2,3.0c2.1,2.2,4.3,5.5,7.8,3.9
		c3.0-1.3,2.1-5.1,2.1-7.9c-0.4-13.9-2.1-27.7-1.9-41.7c0.0-2.9,0.0-4.9,3.5-5.0
		c13.6-0.4,27.1-3.1,40.7-3.1c1.6-0.0,3.4,0.2,3.9-2.0c0.4-2.1-0.9-3.1-2.5-3.6
		c-3.5-1.1-3.8-3.2-2.8-6.5c1.4-4.6,4.8-8.2,6.4-12.8c1.8-5.2,3.8-10.2,10.0-12.2
		C233.1,141.9,234.1,140.1,231.5,137.7z M153.4,178.2c-9.6,1.3-19.3,2.7-29.1,2.9
		c-3.1,0.0-4.0-1.1-4.9-3.9c-2.1-6.5-1.6-13.5-3.2-20.1c-0.6-2.7,1.1-3.5,3.2-3.8
		c12.6-1.6,25.3-3.1,38.0-4.7c3.0-0.3,4.6,0.6,5.0,3.8c0.5,4.6,1.2,9.2,1.0,12.9
		C163.4,176.2,163.4,176.8,153.4,178.2z M211.7,147.4c-2.0,8.6-6.1,16.4-9.5,24.5
		c-0.4,1.1-1.1,2.0-2.5,2.0c-7.5-0.0-14.8,1.8-22.3,2.2c-3.4,0.2-5.3-0.9-5.1-4.8
		c0.2-3.4,0.0-6.9,0.0-10.4c-0.1,0-0.2-0.0-0.3-0.0c0-1.6,0.0-3.3,0-4.9
		c-0.0-7.8,1.0-9.1,8.9-9.9c9.2-0.9,18.5-1.5,27.7-2.6C212.5,142.9,212.4,144.7,211.7,147.4z">
		<animate attributeName="fill" values="#D80000;#FFFFFF;#D80000" begin="6" dur="2s" repeatCount="1"/>
	</path>
</g>
<g id="guo">
	<path fill-rule="evenodd" clip-rule="evenodd" fill="#D80000" d="M231.6,288.0c-1.9-2.9-4.2-5.6-7.1-7.5
		c-2.3-1.5-4.8-2.2-6.5,1.2c-0.9,2.1-2.8,2.8-5.2,3.2c-15.2,2.4-30.6,3.9-45.9,6.0
		c-16.1,2.2-32.3,3.0-48.5,4.9c-4.5,0.5-7.9-0.6-10.3-5.0c-1.8-3.3-3.9-6.8-7.3-9.6
		c-0.9,1.7-0.6,2.9-0.1,3.9c7.2,16.3,6.2,33.9,6.5,51.1c0.2,16.9-0.2,33.9-1.5,50.8
		c-0.2,3.0-0.1,5.9-2.9,7.9c-1.6,1.1-1.8,2.9-0.7,4.3c2.2,2.7,3.2,6.1,5.1,9.1
		c1.9,2.9,4.2,5.0,7.3,1.0c0.9-1.2,2.6-1.2,4.0-1.7c10.5-3.3,21.6-2.9,32.4-3.9
		c15.7-1.3,31.4-2.2,47.2-3.4c8.3-0.5,16.3-0.6,19.6,9.3c0.2,0.8,1.2,1.5,1.8,2.3
		c2.6,2.8,4.7,2.6,6.3-0.9c1.9-4.2,3.2-8.7,3.1-13.4c-0.0-20.3,0.1-40.6-0.1-60.9
		c-0.1-9.8-0.2-19.6,0.5-29.4c0.4-5.4-1.3-11.4,2.7-16.3C232.8,290.5,232.3,289.0,231.6,288.0z
		 M220.5,332.1c-0.7,13.0-0.5,26.2-0.2,39.3c0.1,7.5-0.2,14.9-0.8,22.4
		c-0.2,3.7-2.1,4.9-5.2,3.1c-5.6-3.5-11.5-2.9-17.8-2.1c-22.9,2.9-46.1,3.0-69.1,5.2
		c-2.4,0.2-4.9,0.5-7.4,0.9c-3.3,0.5-4.9-0.8-5.1-4.2c-0.4-5.6-0.0-11.2-0.0-16.9
		c0.1-23.6,0.2-47.3-1.3-70.9c-0.2-4.0,1.4-5.8,5.2-6.2c11.2-1.1,22.4-2.3,33.6-3.6
		c2.3-0.2,4.5-0.7,6.9-1.0c8.0-0.8,8.5-0.5,10.8,7.1c3.0,10.0,2.9,9.4-7.5,11.0
		c-12.1,1.8-24.3,3.5-36.4,5.3c-0.5,0.0-1.0,0.5-2.4,1.3c5.2,2.6,9.4,4.6,15.0,3.3
		c10.1-2.2,20.4-4.0,30.8-5.0c3.0-0.3,3.5,2.0,3.7,4.2c1.0,11.4,3.1,22.6,6.1,33.7
		c0.7,2.6,0.0,4.3-2.5,6.1c-9.1,6.0-17.9,12.5-26.8,18.9c-0.6,0.4-1.0,1.2-1.2,2.1
		c6.9-2.2,12.9-6.1,19.1-9.7c3.7-2.1,7.3-4.6,10.5-7.5c3.5-3.1,5.4-2.2,7.4,1.6
		c4.2,8.3,10.7,14.6,18.5,19.7c1.5,1.0,3.2,2.1,4.9,0.5c1.5-1.3,3.0-2.8,2.5-5.1
		c-1.6-7.4-3.3-14.9-6.3-21.9c-0.1-0.3-0.7-0.5-1.4-0.9c-1.3,4.0,0.2,7.6,0.7,11.2
		c0.2,1.9,0.8,3.7-1.1,4.8c-1.7,0.9-2.7-0.6-3.7-1.6c-4.5-4.1-8.9-8.4-11.2-14.3
		c-0.7-1.7-0.9-3.3,0.6-5.0c3.9-4.2,7.6-8.7,11.5-13.0c0.8-0.9,1.9-2.4,2.9-2.4
		c6.2-0.2,3.6-3.0,1.7-5.7c-1.6-2.2-3.3-4.5-5.0-6.7c-0.5-0.6-1.0-1.4-1.9-1.0
		c-0.4,0.1-0.7,1.0-0.8,1.6c-1.1,8.1-6.9,14.2-9.7,21.6c-0.2,0.6-1.1,1.3-1.8,1.4
		c-1.2,0.1-1.4-1.1-1.6-2.0c-2.5-9.3-4.1-18.8-4.7-28.4c-0.1-2.4,0.8-3.3,3.0-3.5
		c3.6-0.3,7.2-0.7,10.9-0.9c1.3-0.0,2.8,0.0,3.3-1.4c0.5-1.4-0.8-2.3-1.6-3.4
		c-2.4-3.1-5.5-2.2-8.6-1.5c-8.2,1.8-8.4,1.7-7.2-6.3c0.4-2.6-0.9-3.6-2.6-4.6
		c-1.1-0.6-2.4-1.0-3.6-1.6c-1.1-0.6-2.5-0.9-3.4-2.8c5.1-0.8,10.0-1.7,14.9-2.3
		c10.4-1.2,20.8-2.1,31.2-3.3c4.3-0.5,4.7,2.1,4.7,5.1C220.2,308.1,221.2,320.0,220.5,332.1z">
		<animate attributeName="fill" values="#D80000;#FFFFFF;#D80000" begin="8" dur="2s" repeatCount="1"/>
	</path>
	<path fill-rule="evenodd" clip-rule="evenodd" fill="#D80000" d="M164.5,351.9c-1.1-0.8-2.4-1.6-3.8-2.3
		c-1.3-0.6-2.4-2.0-1.5-3.1c2.1-2.5,1.1-7.2,5.3-8.3c0.7-0.2,1.2-0.6,0.7-1.3
		c-1.5-2.5-3.0-5.3-5.8-6.5c-2.2-1.0-3.8,0.9-5.6,2.1c-5.1,3.6-11.3,4.3-17.3,5.6
		c-3.8,0.8-3.9-3.8-6.5-5.2c-1.2-0.6-2.2-2.4-3.8-1.1c-1.3,1.1-0.5,2.8,0.0,4.1
		c2.8,5.8,3.3,12.0,2.5,19.9c0.6,1.7,1.9,4.9,3.1,8.1c0.3,0.9,0.9,1.8,2.1,1.6
		c0.9-0.1,1.0-1.1,1.2-1.9c0.5-2.3,1.2-4.1,4.2-4.6c8.0-1.0,16.0-2.5,24.0-3.8
		c0.7-0.1,1.7,0.2,2.1-0.7C166.2,353.2,165.2,352.4,164.5,351.9z M148.7,352.1
		c-2.2,0.0-4.6,0.5-6.7,1.4c-3.0,1.3-5.0,1.1-5.8-2.5c-0.8-3.6-2.4-7.3,3.0-8.6
		c2.7-0.6,5.5-1.0,8.2-1.7c6.0-1.6,7.0-0.9,6.9,6.1C154.5,349.8,153.2,352.1,148.7,352.1z
		M118.3,375.3c3.6-2.8,8.1-2.7,12.2-3.7,c10.9-2.6,22.1-4.4,32.8-8.0c1.3-0.4,3.4-1.1,
		3.9,0.5c0.6,1.9-1.7,1.8-2.9,2.4,c-10.6,4.7-22.0,7.2-32.4,12.5C128.4,380.8,122.9,379.2
		118.3,375.3z M193.3,299.0c7.1,3.4,14.3,6.4,19.5,12.5,c2.3,2.6,1.7,7.8-1.0,10.1c-0.8,
		0.6-1.4,0.6-2.0-0.2C204.6,313.8,199.3,306.2,193.3,299.0z">
		<animate attributeName="fill" values="#D80000;#FFFFFF;#D80000" begin="8" dur="2s" repeatCount="1"/>
	</path>
</g>
<g id="dot">
	<path fill-rule="evenodd" clip-rule="evenodd" fill="#D80000" d="M266.0,256.1c0.0,4.8-4.0,8.8-8.9,8.8
		c-5.0,0.0-8.8-3.7-8.8-8.7c-0.0-5.0,3.6-8.8,8.7-8.9C261.7,247.2,266.0,251.3,266.0,256.1z">
		<animate attributeName="fill" values="#D80000;#FFFFFF;#D80000" begin="10" dur="2s" repeatCount="1"/>
	</path>
</g>
<g id="frame">
	<path fill-rule="evenodd" clip-rule="evenodd" fill="#D80000" d="M449.0,301.6c-0.1-5.4,0.9-11.1-1.9-16.3
		c-3.1-5.6-1.7-11.9-1.9-17.9c-0.0-1.3-0.3-2.8,0.9-3.6c3.3-2.2,2.6-4.9,1.3-8.1
		c-0.6-1.5-0.8-3.8-0.1-5.3c1.5-3.4-0.6-5.4-1.9-8.0c-1.9-4.0-4.0-8.1-5.0-12.4
		c-0.8-3.2,1.3-6.7,0.9-10.2c-0.1-0.9,0.4-1.8,1.7-1.7c3.8,0.2,4.1-2.2,4.1-5.1
		c0.0-7.4-0.6-14.8,1.8-22.1c0.7-2.2,0.3-5.0-0.0-7.4c-1.2-6.9-1.5-13.5,1.6-20.2
		c1.2-2.5,2.1-7.2-1.2-8.5c-5.2-2.0-4.4-5.0-3.4-9.1c0.3-1.6,0.2-5.6-3.7-2.5
		c-0.8,0.6-1.8,0.9-2.6-0.0c-0.9-1.1,1.2-8.6,2.6-9.3c3.6-1.8,7.1-8.1,6.9-12.2
		c-0.1-2.2-0.1-4.5,0.0-6.7c0.3-5.6,0.2-10.9-5.0-14.7c-0.9-0.6-1.8-2.2-1.8-3.3
		c-0.2-6.8-7.6-10.3-8.1-17.0c-0.0-0.6-0.9-1.5-1.6-1.7c-10.5-2.8-18.2-14.1-31.0-10.2
		c-0.2,0.0-0.6-0.1-0.9-0.2c-2.4-1.5-5.3-1.3-7.5-0.4c-7.2,2.7-14.1-0.6-21.2-0.7
		c-6.1-0.0-12.2-0.3-18.3,0.7c-2.3,0.4-4.3,1.1-6.7,0.1c-2.0-0.8-4.5-1.3-6.7-1.2
		c-7.2,0.5-14.0-1.3-20.3-4.1c-6.4-2.8-12.9-1.5-19.4-1.9c-1.2-0.0-2.4,0.4-2.5,1.7
		c-0.1,1.4,1.0,1.8,2.1,2.2c2.7,0.9,5.8,1.1,8.3,2.9c0.8,0.5,1.1,1.0,1.0,1.9
		c-0.1,0.8-0.7,1.1-1.4,1.0c-5.5-1.0-10.0,2.0-15.0,4.2c-0.5-3.4-0.1-7.1-4.4-7.0
		c-3.3,0.0-7.3,0.1-7.0,5.3c0.0,1.6-1.5,1.3-2.6,1.4c-7.7,1.0-14.3-3.7-21.7-4.3
		c-0.6-0.0-1.2-0.9-1.8-1.5c-3.1-3.1-6.9-5.0-11.1-5.7c-0.7-0.1-5.2-2.7-2.8,2.3
		c0.6,1.4-1.4,1.8-2.6,1.7c-2.4-0.3-4.8-1.1-7.2-1.4c-6.2-0.9-12.3-3.8-18.7-1.7
		c-6.3,2.1-12.8,1.5-19.2,1.7c-2.2,0.0-4.4-0.3-6.4,1.2c-2.8,2.2,0.2,4.3-0.0,7.1
		c-2.0-2.1-4.5-1.2-6.7-1.8c-2.8-0.8-6.4-1.6-9.0,0.7c-3.2,2.9-5.4,2.2-7.5-1.2
		c-2.1-3.5-5.4-5.8-9.5-4.8c-8.2,2.0-16.8-1.8-25.2,2.3c-2.9,1.4-7.7,0.4-11.4,2.4
		c-1.4,0.7-2.7-0.3-3.9-1.4c-2.3-2.1-4.8-2.4-8.1-1.9c-4.2,0.7-8.2,2.0-12.2,3.6
		c-5.3,2.1-11.3,3.4-13.9,9.8c-1.2,3.0-2.7,5.8-6.5,6.8c-1.5,0.4-2.5,2.5-3.1,4.6
		c-2.7,8.8-1.0,18.0-2.5,26.9c-0.2,1.5,0.5,3.5,1.6,3.8c3.3,0.9,3.0,3.7,3.8,6.3
		c-1.8,0.7-4.8-2.1-4.5,1.0c0.3,3.8-3.4,9.1,2.8,11.6c0.7,0.2,0.8,0.8,0.3,1.6
		c-3.9,6.6-0.4,15.2-5.3,21.7c-0.8,1.0-0.6,3.4-0.0,4.8c1.7,3.7,4.7,6.9,3.0,11.6
		c-0.1,0.4,0.8,1.3,1.3,1.9c5.1,6.1,4.9,12.4-0.5,18.4c-4.2,4.7-4.0,10.8-3.1,16.2
		c0.4,3.2,1.2,6.1,0.6,9.4c-0.3,2.1-0.5,4.3-0.3,6.4c0.6,6.1,0.5,12.3,0.7,18.4
		c0.1,7.5,0.5,14.4,6.5,19.8c1.4,1.3,2.2,3.0-1.0,4.1c-3.8,1.2-7.6,10.2-6.5,14.1
		c1.8,6.9,2.4,13.8-0.7,20.5c-1.3,2.8-1.1,5.6-0.2,8.6c1.3,4.7,3.3,9.5,0.5,14.7
		c-0.9,1.8-0.4,4.6-0.1,6.9c0.4,2.9,2.0,5.6,1.0,8.9c-0.5,1.7,1.1,2.6,3.2,1.9
		c4.3-1.5,5.3-0.4,4.4,4.1c-0.9,5.2-3.5,9.1-8.3,11.4c-1.9,0.9-3.0,2.2-2.3,4.2
		c3.2,8.8,1.3,18.0,1.8,27.1c0.2,4.2-0.6,8.5,2.6,12.2c1.6,1.8,0.7,4.3,0.0,6.0
		c-1.4,3.3-0.1,5.8,1.6,8.2c1.2,1.5,1.5,3.0,1.7,4.9c0.7,5.6,2.7,11.1,8.3,13.4
		c8.5,3.4,17.6,5.1,26.1,8.9c0.6,0.3,1.7,0.2,2.4,0.0c5.5-1.8,11.3,0.9,16.9-0.8
		c1.7-0.5,3.6,0.0,5.2,1.0c3.7,2.3,7.4,1.8,11.2,0.1c4.7-2.2,9.3-2.7,14.0-0.0
		c2.1,1.2,6.1,1.4,6.2,0.0c0.6-7.8,4.6-3.8,8.6-3.4c5.6,0.5,11.8,1.3,16.7-3.2
		c1.0-1.0,2.7-0.1,4.2,0.1c3.1,0.5,2.6,3.7,4.3,5.2c4.3,3.6,9.5,2.1,14.3,1.7
		c2.6-0.2,2.2-2.6,0.6-4.5c-1.3-1.6-4.0-2.5-3.5-5.4c7.4,0.8,13.1,5.5,19.8,7.5
		c3.5,1.0,6.9,2.7,10.7,2.7c6.1-0.0,12.4-0.6,18.4,0.1c6.1,0.8,10.9-0.4,15.9-4.0
		c4.9-3.6,9.0-2.9,11.7,0.7c4.4,6.2,9.1,6.9,16.0,2.8c2.2-1.3,4.6-1.7,7.4-0.8
		c4.2,1.3,8.8,3.6,13.2,2.0c9.5-3.5,19.0-2.2,28.6-1.1c6.5,0.8,11.6-2.9,11.8-9.0
		c0.0-1.1-1.8-2.7,0.5-3.7c1.9-0.7,3.4-0.2,4.8,1.0c1.6,1.6,3.2,3.3,4.2,5.4
		c1.4,2.8,3.8,4.7,7.0,4.4c5.7-0.4,11.3,4.2,17.2,0.3c0.4-0.2,1.4,0.4,2.2,0.7
		c6.0,1.7,12.1-2.0,18.2-0.0c0.2,0.0,0.8-0.0,0.9-0.2c2.1-4.5,7.2-3.4,10.5-5.4
		c9.7-5.9,17.6-13.3,16.9-26.2c-0.1-3.5,0.6-6.6,2.8-9.6c2.1-2.9,3.1-6.5,0.1-9.8
		c-1.4-1.6-2.5-3.7-1.9-5.9c1.9-7.5,3.4-15.1,2.2-22.9c-0.0-0.4,0.4-0.8,0.6-1.3
		c1.2-4.3,1.7-8.6,0.3-13.1c-2.0-6.2-1.5-12.4,1.4-18.2c1.7-3.3,1.9-6.9,1.1-10.1
		C448.8,320.4,449.2,311.0,449.0,301.6z M432.0,357.7c2.4,7.8-1.3,15.5-1.4,23.4
		c-0.0,3.9-0.1,8.0,1.0,11.5c3.4,10.7,0.3,20.8-2.4,30.9c-1.5,5.4-6.1,7.6-11.2,8.2
		c-3.6,0.4-7.0,0.8-10.6,1.8c-5.2,1.5-10.7,2.0-15.9-0.1c-1.4-0.6-2.9-0.4-4.4-0.5
		c-6.7-0.3-13.5-0.4-20.3-0.7c-10.5-0.3-21.1,0.4-31.6,2.0c-6.1,0.9-11.7-0.5-17.6-0.8
		c-8.7-0.5-17.5-1.0-26.3,0.1c-10.3,1.3-20.4,1.7-30.2-3.1c-4.9-2.4-10.0-2.2-15.1,0.4
		c-4.3,2.2-9.3,4.1-14.0,3.9c-14.0-0.5-28.0,1.2-42.1,0.9c-10.2-0.2-20.7,1.1-31.1,1.2
		c-14.0,0.1-28.0-0.2-42.0,0.1c-8.3,0.2-16.3-1.9-24.6-2.2c-3.4-0.1-4.8-3.3-6.3-5.6
		c-2.6-4.3-4.1-9.3-4.1-14.5c-0.0-10.1-0.0-20.3-0.0-30.5c0.0-10.5-0.6-21.0,0.2-31.4
		c0.7-9.3,1.6-18.8,0.5-28.0c-1.1-9.5,0.0-18.7,1.4-27.9c0.5-3.6-0.9-7.0-1.1-10.6
		c-0.3-7.3,0.4-14.7-0.8-22.1c-0.6-3.7,0.7-7.8,0.7-11.7c0.1-16.5-0.3-33.0,0.2-49.5
		c0.3-11.7,2.6-23.3,1.8-35.1c-0.0-1.3,0.3-2.8-0.1-3.9c-1.7-4.2-1.0-8.5-1.1-12.9
		c-0.0-6.0,0.1-12.1-0.4-18.3c-1.2-12.4,0.3-24.9,3.6-37c2.2-8.3,11.2-13.1,19.6-11.5
		c3.0,0.5,6.3,0.7,9.4,0.2c11.4-1.8,22.9,0.0,34.3-1.0c8.5-0.8,16.9,0.4,25.5-0.5
		c7.7-0.8,15.7,1.4,23.6,1.5c14.9,0.3,30.0,0.4,45.0,0.0c21.6-0.6,43.1-1.8,64.8-2.2
		c9.2-0.1,18.3,0.9,27.5,1.1c8.9,0.2,17.8-0.4,26.7-1.2c6.3-0.5,12.5-0.8,18.7,0.0
		c2.9,0.4,5.9,0.3,8.9,0.3c8.6,0.1,17.2-0.3,25.8,0.9c5.8,0.8,7.9,3.0,10.0,8.8
		c5,13.8,3.7,28.0,3.6,42.2c-0.0,4.3-0.1,8.7-0.0,13.1c0.3,13.4,1.0,26.9,1.1,40.3
		c0.1,11.2-0.4,22.7-1.0,34.1c-0.1,3.7,0.3,7.2,2.1,10.5c1.0,1.9,1.0,3.8,0.8,5.8
		c-0.9,9.2-1.9,18.4-2.8,27.6c-0.1,1.5,0.2,2.9,0.8,4.3c1.7,4.1,3.8,8.0-0.6,12.2
		c-2.6,2.4-0.1,6.2-0.1,9.4c-0.0,9.3,0.0,18.6-0.0,28.0c-0.0,3.7,0.4,7.2,1.7,10.6
		c1.9,5.1,2.0,10.1,0.3,15.3C430.9,349.6,430.7,353.6,432.0,357.7z">
		<animate attributeName="fill" values="#D80000;#FFFFFF;#D80000" begin="12" dur="2s" repeatCount="1"/>
	</path>
</g>
</svg>
